<svg width="520" height="546" viewBox="0 0 520 546" fill="none" xmlns="http://www.w3.org/2000/svg">
<path d="M225 0C229.826 0 233.854 3.4194 234.793 7.96777L234.947 8.27637L246.262 30.9326C256.186 25.4093 267.788 22.6381 279.961 23.5674C307.192 25.6466 328.783 45.595 334.123 71.042C344.162 63.4817 356.65 59 370.185 59C403.322 59.0001 430.185 85.863 430.185 119C430.185 124.433 429.462 129.696 428.108 134.701C431.144 134.228 434.255 133.982 437.424 133.982C470.561 133.982 497.424 160.845 497.424 193.982C497.424 210.3 490.91 225.095 480.341 235.911C503.254 244.355 519.595 266.383 519.595 292.228C519.595 319.446 501.47 342.431 476.631 349.773C485.634 360.268 491.075 373.908 491.075 388.82C491.075 421.957 464.212 448.82 431.075 448.82C426.555 448.82 422.152 448.32 417.917 447.372C418.69 451.217 419.097 455.194 419.097 459.267C419.096 492.403 392.234 519.267 359.097 519.267C343.721 519.267 329.696 513.482 319.079 503.971C311.351 528.174 288.679 545.701 261.913 545.701C235.613 545.701 213.267 528.78 205.164 505.23C194.437 515.273 180.021 521.422 164.168 521.422C131.031 521.422 104.168 494.559 104.168 461.422C104.168 457.808 104.487 454.27 105.1 450.832C100.471 451.976 95.6314 452.585 90.6494 452.585C57.5123 452.585 30.6494 425.722 30.6494 392.585C30.6495 378.15 35.7466 364.906 44.2393 354.555C18.7478 347.633 0 324.329 0 296.646C0.000127224 271.271 15.7528 249.574 38.0127 240.803C26.8932 229.912 19.9932 214.73 19.9932 197.936C19.9933 164.799 46.8562 137.936 79.9932 137.936C82.7064 137.936 85.3773 138.117 87.9951 138.466C86.4092 133.081 85.5576 127.382 85.5576 121.484C85.5577 88.3473 112.421 61.4844 145.558 61.4844C162.599 61.4844 177.982 68.5896 188.904 79.999L174 110.071L205.414 125.641C203.279 156.839 177.297 181.484 145.558 181.484C142.844 181.484 140.173 181.302 137.555 180.953C139.141 186.338 139.993 192.037 139.993 197.936C139.993 223.311 124.24 245.007 101.979 253.778C113.1 264.669 120 279.852 120 296.646C120 311.081 114.902 324.324 106.409 334.676C131.901 341.597 150.649 364.902 150.649 392.585C150.649 396.198 150.329 399.737 149.717 403.174C154.345 402.029 159.186 401.422 164.168 401.422C190.467 401.422 212.813 418.343 220.916 441.892C231.643 431.849 246.06 425.701 261.913 425.701C277.289 425.701 291.312 431.486 301.93 440.996C309.658 416.793 332.331 399.267 359.097 399.267C363.617 399.267 368.02 399.767 372.254 400.714C371.481 396.87 371.075 392.892 371.075 388.82C371.075 361.601 389.2 338.616 414.038 331.273C405.035 320.779 399.595 307.139 399.595 292.228C399.595 275.91 406.108 261.114 416.677 250.298C393.764 241.854 377.424 219.827 377.424 193.982C377.424 188.55 378.146 183.285 379.499 178.28C376.464 178.753 373.353 179 370.185 179C341.279 179 317.148 158.56 311.456 131.346C300.212 139.809 285.961 144.375 270.825 143.22C250.002 141.63 232.476 129.59 222.993 112.633L236.922 122.466L237.549 122.908L238.139 122.417L251.51 111.291L265.373 122.429L265.999 121.648L266.625 120.869L252.125 109.221L251.488 108.708L250.859 109.231L237.448 120.389L221.576 109.183L221.356 109.492C216.891 100.269 214.731 89.7784 215.567 78.8252C216.875 61.7073 225.244 46.8178 237.601 36.793C235.702 32.014 233.712 27.0181 232.743 22.1797C232.393 20.433 232.175 18.6987 232.143 16.9951C230.327 18.8483 227.799 20 225 20C219.477 20 215 15.5228 215 10C215 4.47715 219.477 7.04678e-08 225 0ZM261.31 461.9C248.331 461.901 237.81 472.422 237.81 485.4C237.81 498.379 248.331 508.9 261.31 508.9C274.288 508.9 284.81 498.379 284.81 485.4C284.81 472.422 274.288 461.9 261.31 461.9ZM261.31 469.9C269.87 469.9 276.81 476.84 276.81 485.4C276.81 493.961 269.87 500.9 261.31 500.9C252.749 500.9 245.81 493.961 245.81 485.4C245.81 476.84 252.749 469.901 261.31 469.9ZM164.31 438.9C151.331 438.901 140.81 449.422 140.81 462.4C140.81 475.379 151.331 485.9 164.31 485.9C177.288 485.9 187.81 475.379 187.81 462.4C187.81 449.422 177.288 438.9 164.31 438.9ZM359.31 435.9C346.331 435.901 335.81 446.422 335.81 459.4C335.81 472.379 346.331 482.9 359.31 482.9C372.288 482.9 382.81 472.379 382.81 459.4C382.81 446.422 372.288 435.9 359.31 435.9ZM164.31 446.9C172.87 446.9 179.81 453.84 179.81 462.4C179.81 470.961 172.87 477.9 164.31 477.9C155.749 477.9 148.81 470.961 148.81 462.4C148.81 453.84 155.749 446.901 164.31 446.9ZM359.31 443.9C367.87 443.9 374.81 450.84 374.81 459.4C374.81 467.961 367.87 474.9 359.31 474.9C350.749 474.9 343.81 467.961 343.81 459.4C343.81 450.84 350.749 443.901 359.31 443.9ZM91.3096 369.9C78.331 369.901 67.8096 380.422 67.8096 393.4C67.8096 406.379 78.331 416.9 91.3096 416.9C104.288 416.9 114.81 406.379 114.81 393.4C114.81 380.422 104.288 369.9 91.3096 369.9ZM431.31 365.9C418.331 365.901 407.81 376.422 407.81 389.4C407.81 402.379 418.331 412.9 431.31 412.9C444.288 412.9 454.81 402.379 454.81 389.4C454.81 376.422 444.288 365.9 431.31 365.9ZM91.3096 377.9C99.87 377.9 106.81 384.84 106.81 393.4C106.81 401.961 99.8699 408.9 91.3096 408.9C82.7493 408.9 75.8096 401.961 75.8096 393.4C75.8096 384.84 82.7493 377.901 91.3096 377.9ZM431.31 373.9C439.87 373.9 446.81 380.84 446.81 389.4C446.81 397.961 439.87 404.9 431.31 404.9C422.749 404.9 415.81 397.961 415.81 389.4C415.81 380.84 422.749 373.901 431.31 373.9ZM59.3096 272.9C46.331 272.901 35.8096 283.422 35.8096 296.4C35.8096 309.379 46.331 319.9 59.3096 319.9C72.2882 319.9 82.8095 309.379 82.8096 296.4C82.8096 283.422 72.2883 272.9 59.3096 272.9ZM460.31 268.9C447.331 268.901 436.81 279.422 436.81 292.4C436.81 305.379 447.331 315.9 460.31 315.9C473.288 315.9 483.81 305.379 483.81 292.4C483.81 279.422 473.288 268.9 460.31 268.9ZM59.3096 280.9C67.87 280.9 74.8096 287.84 74.8096 296.4C74.8095 304.961 67.8699 311.9 59.3096 311.9C50.7493 311.9 43.8096 304.961 43.8096 296.4C43.8096 287.84 50.7493 280.901 59.3096 280.9ZM460.31 276.9C468.87 276.9 475.81 283.84 475.81 292.4C475.81 300.961 468.87 307.9 460.31 307.9C451.749 307.9 444.81 300.961 444.81 292.4C444.81 283.84 451.749 276.901 460.31 276.9ZM80.3096 174.9C67.331 174.901 56.8096 185.422 56.8096 198.4C56.8096 211.379 67.331 221.9 80.3096 221.9C93.2882 221.9 103.81 211.379 103.81 198.4C103.81 185.422 93.2883 174.9 80.3096 174.9ZM438.31 170.9C425.331 170.901 414.81 181.422 414.81 194.4C414.81 207.379 425.331 217.9 438.31 217.9C451.288 217.9 461.81 207.379 461.81 194.4C461.81 181.422 451.288 170.9 438.31 170.9ZM80.3096 182.9C88.87 182.9 95.8096 189.84 95.8096 198.4C95.8095 206.961 88.8699 213.9 80.3096 213.9C71.7493 213.9 64.8096 206.961 64.8096 198.4C64.8096 189.84 71.7493 182.901 80.3096 182.9ZM438.31 178.9C446.87 178.9 453.81 185.84 453.81 194.4C453.81 202.961 446.87 209.9 438.31 209.9C429.749 209.9 422.81 202.961 422.81 194.4C422.81 185.84 429.749 178.901 438.31 178.9ZM146.31 98.9004C133.331 98.9005 122.81 109.422 122.81 122.4C122.81 135.379 133.331 145.9 146.31 145.9C159.288 145.9 169.81 135.379 169.81 122.4C169.81 109.422 159.288 98.9004 146.31 98.9004ZM369.31 94.9004C356.331 94.9005 345.81 105.422 345.81 118.4C345.81 131.379 356.331 141.9 369.31 141.9C382.288 141.9 392.81 131.379 392.81 118.4C392.81 105.422 382.288 94.9004 369.31 94.9004ZM146.31 106.9C154.87 106.9 161.81 113.84 161.81 122.4C161.81 130.961 154.87 137.9 146.31 137.9C137.749 137.9 130.81 130.961 130.81 122.4C130.81 113.84 137.749 106.901 146.31 106.9ZM369.31 102.9C377.87 102.9 384.81 109.84 384.81 118.4C384.81 126.961 377.87 133.9 369.31 133.9C360.749 133.9 353.81 126.961 353.81 118.4C353.81 109.84 360.749 102.901 369.31 102.9ZM249.773 74.373C249.448 76.0319 249.275 77.7459 249.275 79.5C249.276 94.1351 261.14 106 275.775 106C290.411 106 302.275 94.1353 302.275 79.5C302.275 77.7459 302.104 76.0319 301.778 74.373H279.077C282.816 76.8866 285.276 81.156 285.276 86C285.276 93.7319 279.008 99.9999 271.276 100C263.544 100 257.276 93.732 257.276 86C257.276 81.1559 259.736 76.8866 263.476 74.373H249.773Z" fill="black"/>
</svg>
